<svg xmlns="http://www.w3.org/2000/svg" width="139" height="59" viewBox="0 0 139 59">
    <g fill="none" fill-rule="evenodd">
        <path fill="#5DBA46" d="M11.36 29.567c-.122-.4-.212-.799-.304-1.195-.82 2.726-1.853 5.391-2.793 8.054h5.375l-2.278-6.86zm4.86 14.52l-1.457-4.32H7.107l-1.549 4.32H0l8.444-21.628h5.438l8.262 21.627H16.22z"/>
        <path fill="#5DBA46" d="M28.353 45.442c-.999 3.207-3.906 4.467-6.932 4.467-1.468 0-2.82-.245-4.198-.768l2.055-3.974c.528.245 1.116.43 1.704.43 1.967 0 2.291-1.878 2.291-3.51 0-.463.03-.924.03-1.388V25.786h5.402v16.885c0 .955-.059 1.848-.352 2.771"/>
        <path fill="#133E8D" d="M52.31 22.46h-5.793l-4.279 10.247-4.28-10.248h-5.794l-1.819 21.627h5.032l1.01-13.96 5.851 13.203 5.85-13.204L49.1 44.086h5.03zM64.183 37.222c-.482-.06-.934-.093-1.416-.093-1.389 0-3.172.368-3.172 2.105 0 1.343 1.181 1.829 2.357 1.829.815 0 1.48-.242 2.231-.516v-3.325zm.121 6.498a20.21 20.21 0 0 1-.12-2.318l-2.022 2.532a9.897 9.897 0 0 1-1.63.152c-2.956 0-5.582-1.375-5.582-4.668 0-4.026 3.862-5.124 7.122-5.124.695 0 1.45.03 2.111.181-.119-2.197-1.115-3.022-3.319-3.022-1.63 0-3.227.52-4.708 1.19l2.235-3.875c1.326-.333 2.746-.486 4.135-.486 3.562 0 6.277 1.434 6.277 5.428v5.951c0 1.344-.062 2.748.09 4.06h-4.589zM80.346 32.73c-.671-.48-1.4-.753-2.22-.753-2.488 0-3.339 2.349-3.339 4.458 0 2.14.878 4.247 3.34 4.247.818 0 1.518-.24 2.219-.632v-7.32zm0 10.996v-3.013l-2.069 3.013a6.288 6.288 0 0 1-2.125.36c-4.343 0-6.44-3.735-6.44-7.621 0-4.006 2.4-7.982 6.864-7.982 1.368 0 2.644.333 3.77 1.114V22.46h4.95v21.267h-4.95zM87.756 44.086h4.92V29.114h-4.92zM98.884 44.086c-1.785 0-3.694-.365-5.324-1.13v-3.752c1.291.825 2.739 1.586 4.308 1.586 1.047 0 1.97-.516 1.97-1.645 0-1.374-2.185-1.8-3.172-2.139-1.786-.581-3.17-1.861-3.17-3.844 0-3.326 2.956-4.88 6.004-4.88 1.57 0 3.2.366 4.616 1.037v3.722c-1.015-.976-2.214-1.619-3.662-1.619-.954 0-1.938.46-1.938 1.525 0 2.444 6.463 1.377 6.463 6.227 0 3.357-3.047 4.912-6.095 4.912M112.786 31.546c-2.369 0-2.837 2.654-2.837 4.606 0 1.925.498 4.578 2.837 4.578 2.396 0 2.833-2.775 2.833-4.729 0-1.952-.494-4.455-2.833-4.455m-7.807 4.7c0-4.823 3.305-7.964 7.835-7.964 4.501 0 7.747 2.866 7.747 7.719 0 4.912-2.953 8.085-7.717 8.085-4.647 0-7.865-2.868-7.865-7.84M133.014 44.086v-8.089c0-2.063-.181-3.997-2.672-3.997-.96 0-1.829.404-2.579.997v11.09h-4.741v-15.43h4.741v3.465l2.37-3.404c.9-.279 1.832-.436 2.792-.436 3.36 0 4.86 2.092 4.86 5.371v10.433h-4.77z"/>
        <path fill="#5DBA46" d="M26.244 24.123c1.81 0 3.281-1.51 3.281-3.34 0-1.83-1.47-3.315-3.28-3.315-1.81 0-3.28 1.485-3.28 3.315 0 1.83 1.47 3.34 3.28 3.34M32.806 18.3c1.804 0 3.28-1.48 3.28-3.316 0-1.835-1.476-3.339-3.28-3.339-1.803 0-3.28 1.504-3.28 3.339 0 1.837 1.477 3.316 3.28 3.316M40.596 12.477c1.586 0 2.872-1.305 2.872-2.913 0-1.605-1.286-2.91-2.872-2.91-1.584 0-2.87 1.305-2.87 2.91 0 1.608 1.286 2.913 2.87 2.913M47.581 8.318c1.355 0 2.448-1.127 2.448-2.497 0-1.368-1.093-2.494-2.448-2.494-1.358 0-2.473 1.126-2.473 2.494 0 1.37 1.115 2.497 2.473 2.497M56.18 4.99c1.13 0 2.05-.948 2.05-2.09 0-1.14-.92-2.068-2.05-2.068s-2.05.928-2.05 2.068c0 1.142.92 2.09 2.05 2.09M63.982 3.327c.883 0 1.63-.757 1.63-1.676 0-.917-.747-1.651-1.63-1.651-.905 0-1.65.734-1.65 1.651 0 .919.745 1.676 1.65 1.676M72.172 4.16c.899 0 1.641-.752 1.641-1.663 0-.914-.742-1.665-1.64-1.665-.9 0-1.64.751-1.64 1.665 0 .91.74 1.662 1.64 1.662M78.326 4.99c.677 0 1.228-.557 1.228-1.246a1.24 1.24 0 0 0-1.228-1.249c-.68 0-1.232.56-1.232 1.249 0 .69.552 1.247 1.232 1.247M84.066 8.318c.676 0 1.23-.554 1.23-1.236 0-.685-.554-1.26-1.23-1.26-.68 0-1.231.575-1.231 1.26 0 .682.552 1.236 1.23 1.236M88.166 12.477c.673 0 1.23-.57 1.23-1.257 0-.69-.557-1.238-1.23-1.238-.674 0-1.23.548-1.23 1.238 0 .687.556 1.257 1.23 1.257M90.612 17.468c.706 0 1.244-.545 1.244-1.263 0-.686-.538-1.232-1.244-1.232-.676 0-1.216.546-1.216 1.232 0 .718.54 1.263 1.216 1.263M91.036 21.627c.463 0 .82-.356.82-.82a.826.826 0 0 0-.82-.843.827.827 0 0 0-.82.843c0 .464.358.82.82.82M89.404 25.786c.437 0 .812-.378.812-.841a.82.82 0 0 0-1.64 0c0 .463.372.841.828.841"/>
        <path fill="#17419B" d="M34.308 52.22l1.34-2.645h1.468L34.985 53.5V56H33.63v-2.457L31.5 49.575h1.477l1.331 2.646zm3.861 1.315c0 .486.08.854.24 1.103.16.249.42.373.78.373.357 0 .614-.124.77-.371.157-.248.236-.616.236-1.105 0-.487-.08-.851-.237-1.095-.159-.243-.418-.364-.778-.364-.358 0-.616.12-.774.362-.158.242-.237.607-.237 1.097zm3.397 0c0 .8-.211 1.425-.633 1.876-.422.451-1.01.677-1.762.677-.472 0-.888-.103-1.248-.31a2.062 2.062 0 0 1-.83-.89c-.194-.387-.29-.838-.29-1.353 0-.803.209-1.427.628-1.872.419-.446 1.007-.668 1.766-.668.472 0 .888.102 1.248.307.36.205.638.5.83.884.194.383.29.833.29 1.349zM45.884 56l-.18-.628h-.07a1.414 1.414 0 0 1-.611.53 2.085 2.085 0 0 1-.901.186c-.578 0-1.013-.155-1.306-.464-.293-.309-.439-.753-.439-1.333v-3.204h1.34v2.87c0 .354.063.62.19.797.125.177.326.266.601.266.375 0 .646-.125.813-.376.167-.25.25-.665.25-1.246v-2.311h1.341V56h-1.028zm4.907-5.005c.181 0 .332.013.452.04l-.1 1.256a1.535 1.535 0 0 0-.396-.044c-.428 0-.761.11-1 .33-.239.22-.358.527-.358.923V56h-1.34v-4.913h1.015l.197.826h.066c.153-.275.358-.497.618-.666.259-.168.54-.252.846-.252zM57.97 56l-.465-1.53h-2.342L54.698 56H53.23l2.268-6.451h1.665L59.44 56h-1.468zm-.79-2.672l-.728-2.35a6.636 6.636 0 0 1-.116-.432c-.097.375-.374 1.303-.83 2.782h1.674zm5.39 2.76c-.577 0-1.03-.21-1.358-.629h-.07c.047.41.07.648.07.712v1.991h-1.34v-7.075h1.09l.188.637h.062c.313-.486.778-.73 1.393-.73.58 0 1.034.225 1.362.673.329.448.493 1.07.493 1.868 0 .524-.077.98-.231 1.366-.154.387-.373.682-.657.884a1.684 1.684 0 0 1-1.002.303zm-.396-4.021c-.33 0-.572.102-.725.305-.152.204-.231.54-.237 1.009v.145c0 .527.078.905.235 1.134.157.228.405.342.745.342.6 0 .9-.495.9-1.485 0-.483-.073-.846-.221-1.088-.148-.241-.38-.362-.697-.362zm5.821 4.02c-.577 0-1.03-.209-1.358-.628h-.07c.047.41.07.648.07.712v1.991h-1.34v-7.075h1.09l.189.637h.061c.314-.486.778-.73 1.393-.73.58 0 1.035.225 1.363.673.328.448.492 1.07.492 1.868 0 .524-.077.98-.23 1.366-.155.387-.374.682-.658.884a1.684 1.684 0 0 1-1.002.303zm-.395-4.02c-.331 0-.573.102-.725.305-.153.204-.232.54-.238 1.009v.145c0 .527.079.905.235 1.134.157.228.405.342.745.342.6 0 .901-.495.901-1.485 0-.483-.074-.846-.222-1.088-.148-.241-.38-.362-.696-.362zM72.064 56h-1.34v-6.838h1.34V56zm1.079-6.183c0-.437.243-.655.73-.655.486 0 .729.218.729.655 0 .208-.061.37-.183.485-.121.116-.304.174-.547.174-.486 0-.73-.22-.73-.66zM74.54 56H73.2v-4.913h1.34V56zm4.257 0l-.26-.668h-.035c-.225.284-.458.481-.696.591-.24.11-.55.165-.934.165-.472 0-.843-.135-1.114-.404-.271-.27-.407-.654-.407-1.152 0-.521.183-.906.547-1.153.365-.248.915-.385 1.65-.411l.853-.027v-.215c0-.498-.255-.747-.765-.747-.392 0-.854.119-1.384.356l-.444-.905a3.994 3.994 0 0 1 1.881-.444c.66 0 1.165.143 1.516.43.352.288.528.724.528 1.31V56h-.936zm-.396-2.276l-.518.017c-.39.012-.68.082-.87.211-.191.13-.286.325-.286.589 0 .378.217.567.65.567.31 0 .559-.09.745-.268.186-.179.28-.416.28-.712v-.404zM85.378 56h-1.34v-2.87c0-.354-.064-.62-.19-.797-.126-.177-.326-.266-.602-.266-.375 0-.646.125-.813.376-.167.25-.25.665-.25 1.245V56h-1.34v-4.913h1.023l.18.628h.075c.15-.237.356-.416.618-.538.262-.122.56-.182.894-.182.571 0 1.005.154 1.3.463.297.31.445.755.445 1.338V56zm3.105.088c-1.53 0-2.294-.84-2.294-2.518 0-.835.208-1.473.624-1.914.416-.44 1.012-.661 1.788-.661a3.41 3.41 0 0 1 1.53.334l-.396 1.037a6.764 6.764 0 0 0-.589-.209 1.897 1.897 0 0 0-.545-.081c-.697 0-1.046.495-1.046 1.485 0 .961.349 1.441 1.046 1.441.258 0 .497-.034.717-.103.22-.069.44-.176.659-.323v1.147a2.16 2.16 0 0 1-.657.286c-.221.053-.5.079-.837.079zm4.397-4.14c-.285 0-.507.09-.668.27-.161.18-.254.436-.277.767h1.88c-.005-.33-.092-.586-.259-.766-.167-.18-.392-.27-.676-.27zm.189 4.14c-.791 0-1.41-.218-1.855-.655-.445-.436-.668-1.055-.668-1.854 0-.824.206-1.46.618-1.91.411-.45.98-.674 1.707-.674.694 0 1.235.197 1.621.593.387.395.58.942.58 1.64v.65h-3.168c.015.38.128.678.338.892.211.213.507.32.888.32.296 0 .576-.03.84-.092a4.2 4.2 0 0 0 .826-.294v1.037a3.147 3.147 0 0 1-.752.261 4.738 4.738 0 0 1-.975.086zm8.93-.088l-.466-1.53h-2.342L98.725 56h-1.468l2.268-6.451h1.665L103.467 56h-1.468zm-.791-2.672c-.43-1.386-.673-2.17-.727-2.35a6.637 6.637 0 0 1-.117-.432c-.097.375-.373 1.303-.83 2.782h1.674zM107.38 56l-.18-.628h-.07a1.414 1.414 0 0 1-.611.53 2.085 2.085 0 0 1-.901.186c-.577 0-1.012-.155-1.305-.464-.293-.309-.44-.753-.44-1.333v-3.204h1.34v2.87c0 .354.064.62.19.797.126.177.326.266.602.266.375 0 .646-.125.813-.376.167-.25.25-.665.25-1.246v-2.311h1.34V56h-1.028zm4.235-.98c.234 0 .515-.051.843-.154v.998c-.334.15-.744.224-1.23.224-.536 0-.927-.136-1.171-.407-.245-.27-.367-.677-.367-1.22v-2.368h-.642v-.567l.738-.448.387-1.037h.857v1.046h1.376v1.006h-1.376v2.369c0 .19.054.331.16.422.107.09.249.136.425.136zm6.102.98h-1.34v-2.87c0-.709-.264-1.063-.792-1.063-.375 0-.646.127-.813.382-.167.255-.25.668-.25 1.24V56h-1.34v-6.838h1.34v1.393c0 .109-.01.363-.03.765l-.032.395h.07c.3-.48.774-.72 1.424-.72.578 0 1.016.155 1.314.465.3.311.449.756.449 1.336V56zm2.177-2.465c0 .486.08.854.24 1.103.16.249.42.373.78.373.357 0 .614-.124.771-.371.157-.248.235-.616.235-1.105 0-.487-.079-.851-.237-1.095-.158-.243-.417-.364-.778-.364-.357 0-.615.12-.773.362-.158.242-.238.607-.238 1.097zm3.397 0c0 .8-.21 1.425-.632 1.876-.422.451-1.01.677-1.763.677-.471 0-.887-.103-1.248-.31a2.062 2.062 0 0 1-.83-.89c-.194-.387-.29-.838-.29-1.353 0-.803.21-1.427.628-1.872.42-.446 1.008-.668 1.767-.668.471 0 .887.102 1.248.307.36.205.637.5.83.884.194.383.29.833.29 1.349zm3.58-2.54c.182 0 .333.013.453.04l-.101 1.256a1.535 1.535 0 0 0-.396-.044c-.428 0-.76.11-1 .33-.238.22-.358.527-.358.923V56h-1.34v-4.913h1.015l.198.826h.066c.152-.275.358-.497.617-.666.26-.168.541-.252.846-.252zm1.018-1.178c0-.437.243-.655.73-.655.485 0 .729.218.729.655 0 .208-.061.37-.183.485-.121.116-.304.174-.547.174-.486 0-.73-.22-.73-.66zM129.286 56h-1.34v-4.913h1.34V56zm3.206-.98c.235 0 .516-.051.844-.154v.998c-.334.15-.744.224-1.23.224-.537 0-.927-.136-1.172-.407-.244-.27-.367-.677-.367-1.22v-2.368h-.641v-.567l.738-.448.387-1.037h.857v1.046h1.375v1.006h-1.375v2.369c0 .19.053.331.16.422.107.09.248.136.424.136zm.864-3.933h1.468l.927 2.764c.079.24.133.524.163.853h.026c.032-.302.095-.586.189-.853l.91-2.764h1.437l-2.08 5.541c-.19.513-.461.897-.814 1.152a2.057 2.057 0 0 1-1.237.382 3.11 3.11 0 0 1-.681-.075v-1.063c.16.038.336.057.527.057a.952.952 0 0 0 .622-.217c.177-.145.315-.364.415-.657l.08-.242-1.952-4.878z"/>
    </g>
</svg>
